<svg viewBox="0 0 100 100" xmlns="http://www.w3.org/2000/svg">
  <rect width="100" height="100" rx="22" fill="#0E9F6E"/>
  <line x1="5" y1="52" x2="14" y2="52" stroke="white" stroke-opacity="0.45" stroke-width="2.6" stroke-linecap="round"/>
  <line x1="7" y1="58" x2="16" y2="58" stroke="white" stroke-opacity="0.45" stroke-width="2.6" stroke-linecap="round"/>
  <line x1="9" y1="64" x2="18" y2="64" stroke="white" stroke-opacity="0.45" stroke-width="2.6" stroke-linecap="round"/>
  <rect x="20" y="40" width="38" height="35" rx="3.5" fill="white"/>
  <line x1="39" y1="40" x2="39" y2="75" stroke="#D1FAE5" stroke-width="1.5"/>
  <text x="39.5" y="62" text-anchor="middle" fill="#047857" font-weight="800" font-size="9.5" font-family="Inter, system-ui, sans-serif" letter-spacing="-0.3">Movvy</text>
  <path d="M58 50 L75 50 L80 60 L80 75 L58 75 Z" fill="white"/>
  <path d="M62 53 L73 53 L76 60 L62 60 Z" fill="#A7F3D0"/>
  <circle cx="78" cy="64" r="1.6" fill="#FBBF24"/>
  <circle cx="32" cy="78" r="6.2" fill="#1F2937"/>
  <circle cx="32" cy="78" r="2.6" fill="#9CA3AF"/>
  <circle cx="70" cy="78" r="6.2" fill="#1F2937"/>
  <circle cx="70" cy="78" r="2.6" fill="#9CA3AF"/>
  <rect x="18" y="73" width="64" height="2.5" rx="1" fill="#A7F3D0"/>
  <circle cx="76" cy="22" r="10" fill="white"/>
  <path d="M76 32 L72 38 L80 38 Z" fill="white"/>
  <circle cx="76" cy="22" r="4.2" fill="#0E9F6E"/>
</svg>
